<?xml version="1.0" encoding="utf-8"?>
<!-- Generator: Adobe Illustrator 24.3.0, SVG Export Plug-In . SVG Version: 6.00 Build 0)  -->
<svg version="1.1" id="Layer_1" xmlns="http://www.w3.org/2000/svg" xmlns:xlink="http://www.w3.org/1999/xlink" x="0px" y="0px"
	 viewBox="0 0 100 100" style="enable-background:new 0 0 100 100;" xml:space="preserve">
<style type="text/css">
	.st0{fill:#C69210;}
</style>
<g>
	<g>
		<path class="st0" d="M48.5,76.1c-1.8,0-3.2-0.5-3.8-0.7L13.3,62c-3.2-1.2-4.1-2.4-4.6-3.2c-0.7-1.3-0.7-2.7-0.1-4
			c0.3-0.7,0.8-1.2,1.4-1.5c-0.6-0.6-1.1-1.1-1.4-1.6C8,50.4,8,49,8.7,47.7c1-2,3-2.2,3.8-2.2c0.3,0,0.6,0,0.8,0.1
			c0.1,0,0.2,0,0.2,0.1c0.1,0,1.8,0.7,4.3,1.8c7.5,3.1,23.2,9.4,26.9,10.9c1.7,0.7,2.8,0.8,3.3,0.8c0.6,0,0.9-0.1,1-0.3
			c1.2-2.8-0.6-4.3-4.7-6.2c-1-0.4-29.7-11.5-32.1-12.3c-0.5-0.2-0.8-0.6-0.7-1.1c0-0.5,0.3-0.9,0.8-1l44.9-14.2
			c0.1,0,0.2-0.1,0.3-0.1s0.2,0,0.3,0.1c1,0.3,10.7,3.2,28.8,8.4l1.5,0.4c0.1,0.1,0.3,0.1,0.4,0.2c0,0,2.8,2.1,3.1,5.3
			c0.2,1.9-0.6,3.7-2.3,5.4c-1.6,1.6-12.2,6-27,11.9L62,55.8c-4.4,1.8-8.5,3.4-11.3,4.6c-0.3,0.3-0.6,0.6-1.1,0.8s-1.1,0.3-1.7,0.3
			c-1.1,0-2.6-0.3-4.2-1c-4.7-2.1-29.1-12-30.9-12.7c-0.1,0-0.2,0-0.3,0c-0.5,0-1.4,0.1-1.8,0.9c-0.3,0.7-0.3,1.3,0,1.9
			c0.5,0.9,2.1,1.6,3.4,2.1l31.6,13.5c0.2,0.1,1.4,0.5,2.9,0.5c1,0,1.9-0.2,2.7-0.6L87.1,51c0.1-0.1,0.3-0.1,0.4-0.1
			c0.5,0,0.9,0.3,1,0.7c0.2,0.6,0,1.2-0.6,1.5L52.1,68.2C51,68.7,49.8,69,48.5,69c-2.2,0-3.8-0.7-3.8-0.8L13.5,54.9
			c-0.2,0-0.7,0-1,0c-0.5,0-1.4,0.1-1.8,0.9c-0.3,0.7-0.3,1.3,0,1.9c0.5,0.9,2.1,1.6,3.4,2.1l31.6,13.5c0.2,0.1,1.4,0.5,2.9,0.5
			c1,0,1.9-0.2,2.7-0.6L87.2,58c0.1-0.1,0.3-0.1,0.4-0.1c0.5,0,0.9,0.3,1.1,0.7c0.2,0.6,0,1.2-0.6,1.5l-36,15.3
			C51,75.9,49.8,76.1,48.5,76.1z M16.2,39.3l0.2,0.1c7.6,2.9,28.3,10.9,29,11.2c2.5,1.2,6.5,3.1,6.4,6.8v0.1h0.1
			c2.8-1.2,6.4-2.6,9.8-4l0.6-0.2c10.2-4.1,24.2-9.7,25.6-11.2c1.2-1.2,1.8-2.5,1.7-3.7c-0.1-1.9-1.7-3.3-2-3.5l-1.2-0.4
			c-16.8-4.9-26.4-7.7-28.5-8.3l0,0L16.2,39.3z"/>
	</g>
</g>
</svg>
