<?xml version="1.0" encoding="utf-8"?>
<!-- Generator: Adobe Illustrator 24.3.0, SVG Export Plug-In . SVG Version: 6.00 Build 0)  -->
<svg version="1.1" id="Layer_1" xmlns="http://www.w3.org/2000/svg" xmlns:xlink="http://www.w3.org/1999/xlink" x="0px" y="0px"
	 viewBox="0 0 100 100" style="enable-background:new 0 0 100 100;" xml:space="preserve">
<style type="text/css">
	.st0{fill:#15294A;}
</style>
<g>
	<path class="st0" d="M72.9,55.4c-0.7-0.6-1.6-0.9-2.5-0.9c-1.1,0-2.2,0.5-3,1.4L62,61.4l0,0c-0.8-0.8-1.8-1.3-2.9-1.3H48.5
		c-1.5-0.6-3.1-0.9-4.8-0.9c-4.7,0-8.6,2.2-10.7,6l0,0l0,0c-0.1,0-0.3,0-0.4,0c-0.8,0-1.5,0.3-2.1,0.9L26,70.5
		c-0.4,0.4-0.4,1.1,0,1.5l10.6,10.7c0.2,0.2,0.5,0.3,0.8,0.3s0.6-0.1,0.8-0.3l4.6-4.5c0.8-0.8,1.1-1.9,0.7-3l0,0l0.9-0.9
		c0.5-0.5,1.2-0.8,1.9-0.8h12.6c2.3,0,4.4-0.9,6-2.5c0,0,0.2-0.3,1.6-1.9l7-8.4c0.7-0.8,1-1.8,0.9-2.9C74.2,57,73.7,56.1,72.9,55.4z
		 M63.3,69.6c-1.2,1.2-2.8,1.8-4.5,1.8H46.2c-1.3,0-2.5,0.5-3.4,1.4l-0.7,0.7l-7.2-7.2l0,0c1.7-3.1,4.9-4.9,8.8-4.9
		c1.4,0,2.8,0.3,4.1,0.9c0.1,0.1,0.3,0.1,0.4,0.1H59c1,0,1.7,0.8,1.7,1.7c0,1-0.8,1.7-1.7,1.7h-7.7c-0.6,0-1.1,0.5-1.1,1.1
		s0.5,1.1,1.1,1.1H59c2.2,0,3.9-1.8,3.9-3.9c0-0.1,0-0.2,0-0.4l6.1-6.3c0.3-0.4,0.8-0.6,1.3-0.6c0.4,0,0.8,0.1,1.1,0.4
		c0.4,0.3,0.6,0.7,0.6,1.2s-0.1,0.9-0.4,1.3L63.3,69.6z M41.2,75.6c0.2,0.1,0.2,0.4,0.2,0.6s-0.1,0.4-0.2,0.6l-3.8,3.7l-9.1-9.1
		l3.7-3.7c0.2-0.1,0.4-0.2,0.6-0.2c0.1,0,0.3,0,0.4,0.1c0.1,0,0.2,0.2,1.7,1.7C35.9,70.3,37.8,72.3,41.2,75.6z"/>
	<path class="st0" d="M38.9,54.8c-2.6,0-4.7-2.1-4.7-4.7V18c0-0.6,0.5-1.1,1.1-1.1s1.1,0.5,1.1,1.1v2.5h2.1V18
		c0-0.6,0.5-1.1,1.1-1.1s1.1,0.5,1.1,1.1v2.5h2.1V18c0-0.6,0.5-1.1,1.1-1.1S45,17.4,45,18v2.5h2.1V18c0-0.6,0.5-1.1,1.1-1.1
		s1.1,0.5,1.1,1.1v2.5h2.1V18c0-0.6,0.5-1.1,1.1-1.1s1.1,0.5,1.1,1.1v11h8.2c2.2,0,4,1.8,4,4v18.5c0,0.6-0.5,1.1-1.1,1.1
		s-1.1-0.5-1.1-1.1V49h-4.2v1.7c0,2.2-1.8,4-4,4L38.9,54.8L38.9,54.8z M53.6,50.8c0,1,0.8,1.7,1.7,1.7s1.7-0.8,1.7-1.7V33
		c0-0.5,0.1-1,0.3-1.5l0.1-0.3h-3.9v19.6H53.6z M36.5,50.1c0,1.4,1.1,2.5,2.5,2.5h12.8l-0.1-0.3c-0.2-0.5-0.3-1-0.3-1.5V27H36.5
		V50.1z M59.3,46.9h4.2v-2.1h-4.2V46.9z M60.9,31.3c-0.9,0.1-1.5,0.8-1.5,1.7v9.6h4.2V33c0-1-0.8-1.7-1.7-1.7H60.9z M36.5,24.8h14.9
		v-2.1H36.5V24.8z"/>
</g>
</svg>
