<?xml version="1.0" encoding="utf-8"?>
<!-- Generator: Adobe Illustrator 24.3.0, SVG Export Plug-In . SVG Version: 6.00 Build 0)  -->
<svg version="1.1" id="Layer_1" xmlns="http://www.w3.org/2000/svg" xmlns:xlink="http://www.w3.org/1999/xlink" x="0px" y="0px"
	 viewBox="0 0 100 100" style="enable-background:new 0 0 100 100;" xml:space="preserve">
<style type="text/css">
	.st0{fill:#C69210;}
</style>
<g>
	<g>
		<path class="st0" d="M47.5,81.7c-0.6,0-1.1-0.5-1.1-1.1v-2.5c0-2.2-0.3-4.4-0.9-6.5c-0.3-0.8-1-1.5-1.8-1.6
			c-5.7-0.9-9.9-2.9-12.2-6l0,0h-0.1c-3.4-0.4-6.7-2-9.1-4.5c-2.6-2.7-4-6.3-4-10c0-3.8,1.5-7.4,4.1-10.2c2.6-2.7,6.2-4.3,10-4.5
			h0.1l0.1-0.1c0.2-2.5,0.8-4.7,1.9-6.8c0.2-0.4,0.6-0.6,1-0.6c0.2,0,0.3,0,0.5,0.1c0.3,0.1,0.5,0.4,0.6,0.6
			c0.1,0.3,0.1,0.6-0.1,0.8c-0.9,1.8-1.5,3.8-1.6,5.8v0.1l0.1,0.1c1.4,0.2,2.7,0.5,4,1.1l0,0h0.1c3.1-2.8,7-4.4,11.2-4.4
			c4.1,0,8.1,1.5,11.1,4.3l0,0h0.1c1.3-0.6,2.6-0.9,3.9-1.1h0.1l0.1-0.1c-0.6-8-7.3-14.3-15.3-14.3c-2.5,0-4.9,0.6-7.1,1.7
			c-0.1,0.1-0.3,0.1-0.5,0.1c-0.4,0-0.8-0.2-1-0.6c-0.1-0.3-0.2-0.6-0.1-0.8c0.1-0.3,0.3-0.5,0.5-0.6c2.5-1.3,5.3-2,8.1-2
			c9.2,0,16.9,7.2,17.5,16.3v0.1l0.1,0.1c3.8,0.1,7.4,1.7,10,4.5c2.6,2.7,4.1,6.3,4.1,10.2c0,3.7-1.4,7.3-4,10
			c-2.4,2.5-5.5,4.1-9,4.5L68.6,64c-2.3,3.2-6.4,5.2-12.2,6.1c-0.9,0.1-1.7,0.8-1.9,1.7c-0.6,2-0.9,4.2-0.9,6.3v2.5
			c0,0.6-0.5,1.1-1.1,1.1H47.5z M31.9,60.2c0.2,0.7,0.5,1.3,1,1.9l0.1,0.2c2,2.8,5.7,4.6,11,5.5c1.7,0.3,3.1,1.5,3.6,3.2
			c0.7,2.3,1,4.7,1,7.1v1.4l2.7,0.1l0.1-1.4c0-2.3,0.3-4.6,1-6.9c0.5-1.7,2-3,3.7-3.2c5.2-0.7,8.8-2.5,10.7-5.1l0.1-0.1l0.1-0.1
			c0.1-0.2,0.2-0.4,0.4-0.6c0.3-0.5,0.4-0.8,0.6-1.2l0.1-0.3l-0.3,0.1c-0.9,0.4-2,0.6-3.3,0.6c-1.2,0-2.5-0.2-3.9-0.6
			c-0.9-0.2-1.7-0.3-2.5-0.3c-4.8,0-6.8,4-7,4.5c-0.2,0.4-0.6,0.7-1,0.7h-0.4c-0.5,0-0.9-0.3-1-0.7c-0.3-0.8-2.3-4.8-7.1-4.8
			c-0.7,0-1.4,0.1-2.2,0.3c-1.3,0.3-2.5,0.4-3.5,0.4c-1.4,0-2.6-0.3-3.6-0.8L32,59.9L31.9,60.2z M49.9,48.9
			c-2.8,4.6-3.1,8.8-3.1,10.5l0,0l0.1,0.1c0.4,0.3,0.8,0.6,1.2,0.9c0.6,0.6,1.2,1.2,1.7,2l0.1,0.1l0.2-0.1c0.5-0.7,1.1-1.4,1.8-1.9
			c0.4-0.4,0.9-0.7,1.4-1l0,0v-0.1c-0.1-1.8-0.6-6.2-3.1-10.5L50,48.7L49.9,48.9z M32.9,36.9c-6.9,0-12.4,5.6-12.4,12.4
			c0,5.6,3.8,10.6,9.2,12l0.3,0.1l-0.1-0.3c-1-2.7-0.5-4.9-0.5-5c0.1-0.5,0.6-0.9,1.1-0.9c0.6,0,1,0.4,1.1,1c0,0,0.1,0.9,1.1,1.5
			c0.7,0.5,1.8,0.8,3,0.8c0.9,0,1.9-0.1,3-0.4c0.9-0.2,1.8-0.3,2.7-0.3c1.1,0,2.1,0.1,3,0.4h0.1l0.1-0.2c0.2-2.4,1-7.3,4.5-12.1
			c0.2-0.3,0.5-0.4,0.9-0.4c0.3,0,0.7,0.2,0.9,0.4c3.3,4.5,4.2,9.6,4.5,12.3v0.2h0.2c0.7-0.2,1.6-0.3,2.5-0.3c1,0,2,0.1,3.1,0.4
			c1.3,0.3,2.4,0.5,3.3,0.5c1.1,0,2.1-0.2,2.7-0.6c0.9-0.5,1.1-1.3,1.2-1.5c0.1-0.5,0.5-0.9,1-1l0,0c0.5,0,1,0.4,1.1,0.9
			c0.1,0.3,0.3,2.1-0.4,4.2L70,61.4l0.3-0.1c5.5-1.4,9.3-6.4,9.3-12c0-6.9-5.6-12.4-12.4-12.4c-1.4,0-2.8,0.2-4.1,0.7H63v0.2
			c1.1,1.4,2,3.1,2.6,4.8c0.1,0.3,0.1,0.6-0.1,0.8c-0.1,0.3-0.3,0.5-0.6,0.6c-0.1,0-0.2,0.1-0.4,0.1c-0.5,0-0.9-0.3-1-0.7
			c-0.7-2-1.8-3.8-3.3-5.3c-2.7-2.8-6.4-4.3-10.2-4.3c-7.9,0-14.2,6.4-14.2,14.2c0,0.6-0.5,1.1-1.1,1.1s-1.1-0.5-1.1-1.1
			c0-3.7,1.2-7.2,3.5-10.2l0.1-0.1L37,37.6C35.7,37.1,34.3,36.9,32.9,36.9z"/>
		<path class="st0" d="M38.3,25.4c-0.3,0-0.6-0.1-0.8-0.3c-0.2-0.2-0.3-0.5-0.3-0.8s0.1-0.6,0.3-0.8c0.2-0.2,0.5-0.3,0.8-0.3
			s0.6,0.1,0.8,0.3c0.2,0.2,0.3,0.5,0.3,0.8s-0.1,0.6-0.3,0.8C38.9,25.3,38.6,25.4,38.3,25.4z"/>
	</g>
</g>
</svg>
