<?xml version="1.0" encoding="utf-8"?>
<!-- Generator: Adobe Illustrator 24.3.0, SVG Export Plug-In . SVG Version: 6.00 Build 0)  -->
<svg version="1.1" id="Layer_1" xmlns="http://www.w3.org/2000/svg" xmlns:xlink="http://www.w3.org/1999/xlink" x="0px" y="0px"
	 viewBox="0 0 100 100" style="enable-background:new 0 0 100 100;" xml:space="preserve">
<style type="text/css">
	.st0{fill:#C69210;}
</style>
<g>
	<g>
		<g>
			<path class="st0" d="M60.3,55c-2.1,0-3.9,1.7-3.9,3.9c0,2.1,1.8,3.9,3.9,3.9c2.2,0,3.9-1.8,3.9-3.9C64.2,56.7,62.5,55,60.3,55z
				 M60.3,60.8c-1.1,0-2-0.9-2-2s0.9-2,2-2s2,0.9,2,2C62.3,60,61.4,60.8,60.3,60.8z"/>
		</g>
	</g>
	<g>
		<g>
			<g>
				<g>
					<path class="st0" d="M85.1,16.4c-0.3-0.5-0.9-0.8-1.5-0.8c-0.4,0-0.7,0.1-1,0.3c-0.7,0.4-0.7,1.5-0.7,2.4v0.4
						c0.1,2.2-0.3,8.6-4,12.5c-2,2-4.6,3.1-7.9,3.1c-0.2,0-0.4,0-0.6,0c-2.8-5.8-9.5-8.9-19.3-9H50c-9.8,0-16.4,3.1-19.3,9
						c-0.3,0-0.5,0-0.6,0c-3.2,0-5.9-1-7.8-3.1c-3.7-3.9-4.2-10.3-4-12.5v-0.4c0-0.9,0-2-0.7-2.4c-0.3-0.2-0.7-0.3-1-0.3
						c-0.7,0-1.3,0.3-1.5,0.8c-2.5,4.2-4.3,11.6-0.8,18.5c3,6,7.6,9.1,15,9.9v0.3c-1.6,0.3-3,0.8-4.1,1.6c-3.7,2.8-3.8,7.8-3.8,8.8
						c0,0.4,0.2,0.8,0.6,0.9c2.4,1.3,4.6,1.9,6.6,1.9c1.1,0,2.1-0.2,3.1-0.6c0.3,1.3,0.6,2.5,1,4.1l0.4,1.3c0.1,0.1,0.2,0.5,0.2,0.7
						c0,0.1,0.1,0.2,0.1,0.3c1.2,3.5,3,5.9,5,8.6l0.2,0.2c0.8,1.1,1.2,2.5,0.9,3.8c-0.1,0.6-0.1,1.2,0,1.8c0.4,3.4,3.3,6,6.7,6h7.9
						c3.4,0,6.4-2.6,6.7-6c0.1-0.6,0.1-1.2,0-1.8c-0.2-1.3,0.1-2.7,0.9-3.8l0.2-0.2c2-2.7,3.8-5,5-8.6c0,0,0-0.1,0.1-0.3
						s0.2-0.5,0.2-0.7l0.4-1.3c0.4-1.6,0.7-2.9,1-4.1c1,0.4,2,0.6,3.1,0.6c2,0,4.2-0.6,6.6-1.9c0.3-0.2,0.5-0.5,0.6-0.9
						c0-1-0.1-6.1-3.8-8.8c-1.1-0.8-2.5-1.3-4.1-1.6v-0.3c7.4-0.8,12-3.9,15-9.9C89.3,28,87.6,20.6,85.1,16.4z M15.9,33.9
						c-3.3-6.7-0.8-13.3,0-15.1H16c-0.1,3.2,0.8,9.6,4.6,13.7c2.3,2.4,5.4,3.7,9.1,3.7c-0.3,1.2-0.5,2.4-0.6,3.7
						c0,0.1-0.1,1.7-0.1,2.7C22.5,41.8,18.6,39.2,15.9,33.9z M31.3,55.4L31.3,55.4c-0.9,0.6-1.8,0.8-2.9,0.8c-1.5,0-3.2-0.5-5-1.4
						c0-1.4,0.5-4.7,2.9-6.5c0.8-0.6,1.7-1,2.8-1.1h0.1v2.6c0,1.5,0.8,2.9,2.1,3.8C31.2,54.1,31.2,54.7,31.3,55.4L31.3,55.4z
						 M66.8,54.3C66.7,54.3,66.7,54.4,66.8,54.3l-0.1,0.3c0,0.3,0,0.6-0.1,0.9c-0.6,6.1-2.8,11.4-6.7,16c-1.2,1.4-1.7,3.4-1.4,5.4
						c0.1,0.4,0.1,0.8,0,1.3c-0.3,2.3-2.3,4.2-4.7,4.2L51,82.3v-3.2c1.1-0.9,3.6-3.3,3.6-5.3c0-0.6-0.5-1-1-1s-1,0.5-1,1
						c0,0.8-1.4,2.4-2.6,3.4c-1.2-1-2.6-2.6-2.6-3.4c0-0.6-0.5-1-1-1s-1,0.5-1,1c0,2.1,2.5,4.4,3.6,5.3v3.2l-2.9,0.1
						c-2.4,0-4.4-1.8-4.7-4.2c0-0.4,0-0.9,0-1.3c0.3-2-0.2-4-1.3-5.4c-3.9-4.6-6-9.9-6.7-16c0-0.3,0-0.6-0.1-0.9v-0.3
						c0,0,0,0-0.1-0.1l-0.1-0.1h0.2c0.1,0,0.1,0,0.2,0c1.2,0,2.4-0.5,3.3-1.4c0.9,0.9,2.1,1.4,3.3,1.4s2.4-0.5,3.2-1.4
						c0.9,0.9,2.1,1.4,3.3,1.4s2.3-0.5,3.2-1.3c0,0,0,0,0.1,0.1c0,0,0-0.1,0.1-0.1c0.8,0.8,2,1.3,3.2,1.3s2.4-0.5,3.3-1.4
						c0.8,0.9,2,1.4,3.2,1.4s2.4-0.5,3.3-1.4c0.9,0.9,2,1.4,3.3,1.4c0.1,0,0.2,0,0.2,0h0.2L66.8,54.3z M66.4,52.2
						c-1,0-2-0.7-2.3-1.7c-0.1-0.4-0.5-0.7-1-0.7s-0.8,0.3-1,0.7c-0.3,1-1.3,1.7-2.3,1.7s-2-0.7-2.3-1.7c-0.1-0.4-0.5-0.7-1-0.7
						s-0.8,0.3-1,0.7c-0.3,1-1.3,1.7-2.3,1.7s-2-0.7-2.3-1.7c-0.1-0.4-0.5-0.7-0.9-0.7l0,0l0,0c-0.4,0-0.8,0.3-0.9,0.7
						c-0.3,1-1.3,1.7-2.3,1.7s-2-0.7-2.3-1.7c-0.2-0.4-0.5-0.7-1-0.7c-0.4,0-0.8,0.3-1,0.7c-0.3,1-1.3,1.7-2.3,1.7s-2-0.7-2.3-1.7
						c-0.1-0.4-0.5-0.7-1-0.7s-0.8,0.3-1,0.7c-0.3,1-1.3,1.7-2.3,1.7c-1.3,0-2.4-1.1-2.4-2.5c0,0,0-9.3,0-9.4
						C31.8,29.5,41.7,27.2,50,27.2l0,0c8.2,0,18.1,2.3,18.7,13.2c0,0.1,0,9.4,0,9.4C68.8,51.1,67.7,52.2,66.4,52.2z M70.9,47.2
						c1,0.2,2,0.6,2.8,1.1c2.4,1.8,2.8,5.1,2.9,6.5c-1.8,0.9-3.5,1.4-5,1.4c-1,0-2-0.2-2.9-0.7v-0.1l0,0c0-0.6,0.1-1.2,0.1-1.8
						c1.3-0.9,2-2.3,2-3.8L70.9,47.2L70.9,47.2z M84,33.9c-2.7,5.3-6.6,7.9-13.2,8.7c0-1,0-2.5-0.1-2.7c-0.1-1.4-0.3-2.5-0.6-3.7
						c3.7-0.1,6.8-1.3,9.1-3.7c3.9-4,4.8-10.5,4.6-13.7h0.1C84.9,20.7,87.4,27.3,84,33.9z"/>
				</g>
			</g>
			<path class="st0" d="M35.8,58.9c0,2.1,1.8,3.9,3.9,3.9c2.1,0,3.9-1.8,3.9-3.9c0-2.2-1.8-3.9-3.9-3.9C37.5,55,35.8,56.7,35.8,58.9
				z M37.7,58.9c0-1.1,0.9-2,2-2s2,0.9,2,2s-0.9,2-2,2C38.6,60.8,37.7,60,37.7,58.9z"/>
		</g>
	</g>
</g>
</svg>
