<?xml version="1.0" encoding="utf-8"?>
<!-- Generator: Adobe Illustrator 24.3.0, SVG Export Plug-In . SVG Version: 6.00 Build 0)  -->
<svg version="1.1" id="Layer_1" xmlns="http://www.w3.org/2000/svg" xmlns:xlink="http://www.w3.org/1999/xlink" x="0px" y="0px"
	 viewBox="0 0 100 100" style="enable-background:new 0 0 100 100;" xml:space="preserve">
<style type="text/css">
	.st0{fill:#C69210;}
</style>
<g>
	<path class="st0" d="M62.2,23.9c-3.8-1.8-7.8-2.7-11.9-2.7c-1.1,0-2.3,0.1-3.5,0.2C36.4,22.7,28.7,28.2,24,37.7
		c-1.9,3.8-2.8,7.9-2.8,12.9c-0.1,1.6,0.2,3.8,0.8,6.3c0.2,0.8,0.9,1.4,1.5,1.7c0.3,0.1,0.5,0.2,0.8,0.2c0.7,0,1.4-0.4,1.9-1.1
		c0.9-1.3,1.9-2.8,2.8-4.2l0,0c0.9-1.4,1.9-2.9,2.8-4.2l0.4-0.6c0.3-0.5,0.7-0.9,1-1.4c0.4-0.5,0.8-0.8,1.3-0.8s0.9,0.3,1.3,0.8
		c0.6,0.8,1.1,1.5,1.7,2.1c0.6,0.7,1.1,1.3,1.6,2c0.9,1.2,2,1.8,3.2,1.8s2.3-0.6,3.2-1.8c1.5-2.1,3-4.1,4.5-6.1l0,0
		c2.1-2.8,4.2-5.6,6.3-8.6c0.4-0.6,0.9-0.9,1.5-0.9s1.1,0.3,1.5,0.9c1.9,2.8,3.9,5.7,5.9,8.5c2.8,4.1,5.7,8.4,8.6,12.4
		c0.3,0.4,0.5,0.7,1,1c0.3,0.2,0.7,0.3,1.1,0.3c1.1,0,2-0.8,2.2-1.8c0.1-0.3,0.1-0.6,0.2-0.9l0,0c0.2-1.3,0.5-2.6,0.6-3.9
		C79.5,39.9,73.2,29.1,62.2,23.9 M76.4,51.8c-0.1,1.2-0.3,2.4-0.5,3.6c0,0.2-0.1,0.4-0.1,0.6l-0.1-0.1c-2.8-4-5.7-8.2-8.5-12.3
		l-0.1-0.1c-1.9-2.8-3.9-5.7-5.8-8.5c-0.9-1.2-2.1-1.9-3.4-1.9c-1.4,0-2.6,0.7-3.5,1.9c-2,3-4.2,5.8-6.2,8.5c-1.5,2-3,4-4.6,6.2
		c-0.4,0.5-0.8,0.8-1.3,0.8s-0.9-0.3-1.3-0.8c-0.6-0.8-1.2-1.5-1.7-2.2c-0.5-0.6-1-1.2-1.6-2c-0.8-1.1-2-1.8-3.2-1.8
		s-2.4,0.6-3.2,1.8c-0.4,0.5-0.7,1-1,1.4l-0.4,0.6c-1,1.3-1.9,2.8-2.9,4.3l0,0c-0.9,1.4-1.8,2.8-2.7,4.1c-0.5-2.1-0.8-4.1-0.7-5.5
		c0-4.7,0.8-8.4,2.5-11.9c4.4-8.7,11.5-13.8,21.1-15c1.1-0.1,2.1-0.2,3.2-0.2c3.7,0,7.4,0.8,10.9,2.5C71.3,30.8,77.1,40.7,76.4,51.8
		"/>
	<path class="st0" d="M71.4,65c-0.6-0.9-1.8-2.5-2.3-3.1l-0.8-1.1c-1.1-1.5-1.5-2.1-1.7-2.3l-0.1-0.1c-0.5-0.5-1.2-0.8-1.9-0.8
		c-0.9,0-1.8,0.5-2.4,1.4c-0.5,0.8-1.1,1.6-1.7,2.3c-0.1,0.1-0.3,0.3-0.5,0.3s-0.5-0.2-0.7-0.4c-1.2-1.2-2-2.2-3.1-3.5
		c-0.5-0.6-1.1-1.4-1.8-2.2L54,55c-1-1.2-2-1.7-3-1.7s-2,0.6-2.8,1.7c-0.4,0.5-0.9,1.2-1.6,2.2c-0.6,0.8-1.2,1.7-1.8,2.6l-0.1,0.1
		c-1.6,2.3-3.2,4.6-4.2,5.8c0,0.1-0.1,0.1-0.2,0.1C40.2,65.9,40,66,39.8,66s-0.3,0-0.7-0.4c-0.3-0.3-0.7-0.6-1-0.8
		c-0.5-0.4-1.1-0.9-1.6-1.4c-0.7-0.7-1.6-1.1-2.4-1.1c-0.9,0-1.7,0.5-2.3,1.3c-0.5,0.7-2,2.6-2.1,2.7c-0.4,0.5-1,1.2-1,2.1
		c0,0.7,0.3,1.4,0.7,1.9l0.1,0.1l0,0l0.1,0.1l0,0l0.1,0.1c2.4,2.4,5.1,4.3,8.1,5.7l0.1,0.1c3.8,1.8,7.9,2.7,12,2.7H50l0,0
		c1.9,0,3.8-0.2,5.6-0.6c1.3-0.3,2.6-0.6,3.9-1c1.4-0.5,2.8-1.1,4.1-1.8c2.6-1.4,5-3.3,7.3-5.6c0.7-0.7,1.6-1.8,1.1-3.5
		C71.9,65.8,71.6,65.3,71.4,65 M51,55.6c0.1,0,0.5,0.1,1.1,0.8l0.4,0.5c0.7,0.8,1.3,1.5,1.8,2.2c1,1.3,1.9,2.4,3.2,3.7
		c0.9,0.9,1.8,1.1,2.4,1.1c0.9,0,1.7-0.4,2.3-1.2c0.6-0.7,1.2-1.6,1.7-2.3c0.2-0.2,0.3-0.3,0.5-0.3c0.1,0,0.2,0,0.3,0.1
		c0.2,0.2,1.2,1.6,1.6,2.2l0.5,0.7l0,0c0.1,0.1,0.1,0.2,0.3,0.4c0.5,0.7,1.7,2.2,2.3,3.1c0.2,0.2,0.3,0.4,0.3,0.6
		c0.1,0.3,0.1,0.6-0.5,1.2c-2.1,2.1-4.3,3.8-6.7,5.1c-1.2,0.5-2.5,1-3.8,1.5c-1.1,0.4-2.3,0.7-3.6,1c-1.7,0.3-3.4,0.5-5.2,0.5H50
		c-3.8,0-7.6-0.8-11.1-2.5c-2.8-1.3-5.3-3.1-7.5-5.3l-0.1-0.1c-0.1-0.1-0.1-0.2-0.1-0.3c0,0,0.1-0.2,0.4-0.6c0.1-0.1,1.6-2,2.2-2.9
		c0.1-0.2,0.2-0.3,0.3-0.3s0.4,0.1,0.8,0.5c0.5,0.5,1.2,1,1.7,1.5l0.1,0.1c0.3,0.3,0.6,0.5,0.9,0.7l0.1,0.1c0.6,0.5,1.2,0.9,2.2,0.9
		c0.7,0,1.3-0.2,1.8-0.6c0.2-0.2,0.4-0.3,0.6-0.5c1.1-1.2,2.7-3.5,4.4-6c0.6-0.8,1.3-1.8,1.9-2.7c0.5-0.7,1.1-1.5,1.6-2.2
		C50.5,55.9,50.8,55.6,51,55.6"/>
</g>
</svg>
