<?xml version="1.0" encoding="utf-8"?>
<!-- Generator: Adobe Illustrator 24.3.0, SVG Export Plug-In . SVG Version: 6.00 Build 0)  -->
<svg version="1.1" id="Layer_1" xmlns="http://www.w3.org/2000/svg" xmlns:xlink="http://www.w3.org/1999/xlink" x="0px" y="0px"
	 viewBox="0 0 100 100" style="enable-background:new 0 0 100 100;" xml:space="preserve">
<style type="text/css">
	.st0{fill:#C69210;}
</style>
<g>
	<g>
		<g>
			<path class="st0" d="M50,73.9c-5.4,0-10.1-4.2-11.8-10.5c-0.5-1.8-1.2-3.4-2.3-4.7c-2.4-3.1-3.7-6.9-3.7-10.8
				c0-3.2,0.9-6.3,2.5-9c0.1-0.2,0.4-0.4,0.6-0.5c0.1,0,0.2-0.1,0.3-0.1s0.2-0.1,0.3-0.1c0.2,0,0.4,0.1,0.6,0.2
				c0.3,0.2,0.4,0.5,0.5,0.8c0.1,0.8,0.3,1.6,0.8,2.3s1.1,1.2,1.9,1.5c0.5,0.2,1.1,0.3,1.7,0.3c1.1,0,2.1-0.4,2.9-1.1
				C44.5,42,44.7,42,45,42c0.1,0,0.1,0,0.2,0c0.3,0.1,0.6,0.3,0.7,0.5c0.8,1.5,2.3,2.4,4,2.4s3.2-0.9,4-2.4c0.1-0.3,0.4-0.5,0.7-0.5
				c0.1,0,0.1,0,0.2,0c0.2,0,0.5,0.1,0.7,0.3c0.8,0.7,1.8,1.1,2.9,1.1c0.6,0,1.2-0.1,1.7-0.3c0.8-0.3,1.4-0.8,1.9-1.5
				s0.8-1.4,0.8-2.3c0-0.3,0.2-0.6,0.5-0.8c0.2-0.1,0.4-0.2,0.6-0.2c0.1,0,0.2,0,0.3,0.1c0.2,0.1,0.3,0.1,0.5,0.1
				c0.3,0.1,0.5,0.2,0.7,0.5c1.6,2.7,2.4,5.8,2.4,9c0,3.3-0.9,6.4-2.6,9.2c-0.2,0.3-0.5,0.5-0.9,0.5c-0.2,0-0.4-0.1-0.5-0.2
				c-0.2-0.1-0.4-0.4-0.5-0.6c-0.1-0.3,0-0.5,0.1-0.8c1.5-2.4,2.3-5.3,2.3-8.1c0-2.1-0.4-4.3-1.3-6.2l-0.1-0.1l-0.1,0.1
				c-0.2,0.3-0.4,0.7-0.6,1c-0.7,1-1.7,1.8-2.8,2.2c-0.8,0.3-1.6,0.5-2.5,0.5c-1.1,0-2.3-0.3-3.3-0.9c-1.1,1.4-3,2.3-5,2.3
				s-3.9-0.9-5.2-2.5c-1.1,0.5-2.2,0.8-3.3,0.8c-0.9,0-1.7-0.2-2.5-0.5c-1.1-0.5-2.1-1.2-2.8-2.2c-0.2-0.3-0.4-0.6-0.5-0.9l-0.1-0.1
				l-0.1,0.1c-0.8,1.9-1.3,4-1.3,6.1c0,3.5,1.1,6.8,3.3,9.6c1.2,1.6,2.1,3.5,2.7,5.5c1.3,4.9,4.7,8.4,8.7,8.9L49,68l-3.7-3.7
				C45.1,64.2,45,64,45,63.7s0.1-0.5,0.3-0.7s0.5-0.3,0.7-0.3s0.5,0.1,0.7,0.3l3.2,3.2l3.3-3.2c0.2-0.2,0.5-0.3,0.7-0.3
				c0.3,0,0.5,0.1,0.7,0.3s0.3,0.5,0.3,0.7c0,0.3-0.1,0.5-0.3,0.7l-3.7,3.7v3.6c4.1-0.5,7.5-4,8.7-8.9c0.4-1.4,0.9-2.6,1.6-3.9
				c0.2-0.3,0.5-0.5,0.9-0.5c0.2,0,0.4,0,0.5,0.1c0.2,0.1,0.4,0.4,0.5,0.6c0.1,0.3,0,0.5-0.1,0.8c-0.6,1-1.1,2.2-1.4,3.3
				C60.1,69.7,55.4,73.9,50,73.9z"/>
			<path class="st0" d="M50,81.2c-2.2,0-4.3-1.1-5.6-2.8c-1.2,0.6-2.4,1-3.6,1c-0.9,0-1.8-0.2-2.7-0.5c-1.2-0.5-2.3-1.3-3-2.4
				c-0.5-0.7-0.9-1.5-1.1-2.3c-0.4,0-0.7,0-1,0c-1.9,0-3.6-0.7-5-2.1c-1.3-1.3-2-3.1-2-4.9c0-0.3,0-0.7,0.1-1
				c-0.9-0.3-1.6-0.6-2.4-1.1c-1.1-0.8-1.9-1.8-2.4-3c-0.4-0.9-0.5-1.8-0.5-2.7c0-1.3,0.3-2.5,1-3.6C20,54.4,19,52.3,19,50.1
				c0-1.3,0.4-2.6,1.1-3.7c0.5-0.7,1-1.4,1.7-1.9c-0.6-1.2-1-2.4-1-3.6c0-0.9,0.2-1.8,0.5-2.7c0.2-0.4,0.4-0.8,0.6-1.2
				c-2.6-3.3-3.6-7.6-2.7-11.7c0.1-0.4,0.4-0.7,0.8-0.8c1-0.2,2.1-0.4,3.1-0.4c2.7,0,5.3,0.8,7.5,2.3c0.8-0.3,1.6-0.4,2.4-0.4
				c0.3,0,0.6,0,1,0.1c0.3-0.8,0.6-1.6,1.1-2.2c0.2-0.3,0.5-0.4,0.9-0.4c0.2,0,0.4,0.1,0.6,0.2c0.5,0.3,0.6,1,0.3,1.4
				c-0.5,0.7-0.8,1.5-0.9,2.4c0,0.3-0.2,0.6-0.4,0.8c-0.2,0.1-0.4,0.2-0.6,0.2c-0.1,0-0.2,0-0.3-0.1C34,28,33.5,28,32.9,28h-0.3
				l0.1,0.1c0.3,0.3,0.6,0.7,0.9,1c2.7,3.4,1.7,7.2-0.4,9.3c-1.3,1.3-3.1,2.1-4.9,2.1c-1.5,0-3.1-0.6-4.4-1.6l-0.1-0.1
				c-0.1-0.1-0.2-0.2-0.3-0.3c-0.2,0.2-0.2,0.3-0.3,0.4c-0.3,0.6-0.4,1.3-0.4,1.9c0,1.2,0.4,2.3,1.2,3.2c0.2,0.2,0.3,0.6,0.2,0.9
				c-0.1,0.3-0.3,0.6-0.5,0.7c-0.8,0.4-1.5,1-2,1.8s-0.8,1.7-0.8,2.6c0,1.9,1,3.6,2.7,4.4c0.3,0.1,0.5,0.4,0.5,0.7
				c0.1,0.3,0,0.6-0.2,0.9c-0.8,0.9-1.2,2-1.2,3.2c0,0.6,0.1,1.3,0.4,1.9c0.3,0.9,0.9,1.6,1.7,2.1c0.7,0.5,1.6,0.8,2.5,0.9
				c0.3,0,0.6,0.2,0.8,0.5c0.2,0.3,0.2,0.6,0.1,0.9C28,66,28,66.5,28,67c0,1.3,0.5,2.6,1.4,3.5s2.2,1.5,3.5,1.5
				c0.5,0,1.1-0.1,1.5-0.3c0.1,0,0.2,0,0.3,0c0.2,0,0.4,0.1,0.6,0.2c0.3,0.2,0.4,0.5,0.5,0.8c0.1,0.9,0.4,1.8,0.9,2.5
				c0.5,0.8,1.3,1.3,2.1,1.7c0.6,0.2,1.2,0.4,1.9,0.4c1.2,0,2.3-0.4,3.2-1.2c0.2-0.2,0.4-0.3,0.7-0.3c0.1,0,0.1,0,0.2,0
				c0.3,0.1,0.6,0.3,0.7,0.5C46.3,78,48,79,49.9,79s3.6-1,4.4-2.7c0.1-0.3,0.4-0.5,0.7-0.5c0.1,0,0.1,0,0.2,0c0.2,0,0.5,0.1,0.7,0.2
				c0.9,0.8,2,1.2,3.2,1.2c0.6,0,1.3-0.1,1.9-0.4c0.9-0.4,1.6-1,2.1-1.7s0.8-1.6,0.9-2.5c0-0.3,0.2-0.6,0.4-0.8
				c0.2-0.1,0.4-0.2,0.6-0.2c0.1,0,0.2,0,0.3,0.1c0.5,0.2,1,0.3,1.6,0.3c1.3,0,2.6-0.5,3.5-1.5c0.9-0.9,1.5-2.2,1.5-3.5
				c0-0.5-0.1-1-0.3-1.5c-0.1-0.3-0.1-0.6,0.1-0.9s0.5-0.4,0.8-0.4c0.9-0.1,1.8-0.4,2.5-0.9c0.8-0.5,1.3-1.3,1.7-2.1
				c0.3-0.6,0.4-1.3,0.4-1.9c0-1.2-0.4-2.3-1.2-3.2c-0.2-0.2-0.3-0.6-0.2-0.9c0.1-0.3,0.3-0.6,0.5-0.7c0.8-0.4,1.5-1,2-1.8
				S79,51,79,50.1c0-1-0.3-1.9-0.7-2.7c-0.5-0.8-1.2-1.4-2-1.8c-0.3-0.1-0.5-0.4-0.5-0.7c-0.1-0.3,0-0.6,0.2-0.9
				c1.2-1.4,1.5-3.4,0.8-5.1c-0.1-0.2-0.2-0.3-0.2-0.5c-0.2,0.1-0.3,0.2-0.4,0.3l-0.1,0.1c-1.3,1.1-2.8,1.6-4.4,1.6
				c-1.8,0-3.6-0.8-4.9-2.1c-2.1-2.1-3.2-5.9-0.4-9.3c0.3-0.3,0.6-0.7,0.9-1l0.1-0.1h-0.3c-0.5,0-1,0.1-1.5,0.2
				c-0.1,0-0.2,0.1-0.3,0.1c-0.2,0-0.4-0.1-0.6-0.2c-0.3-0.2-0.4-0.5-0.4-0.8c-0.1-0.9-0.4-1.8-0.9-2.5c-0.5-0.8-1.3-1.3-2.1-1.7
				c-0.6-0.3-1.2-0.4-1.9-0.4c-1.2,0-2.3,0.4-3.2,1.2C56,24,55.8,24,55.5,24l0,0c-0.1,0-0.1,0-0.2,0c-0.3-0.1-0.6-0.3-0.7-0.5
				c-0.4-0.8-1-1.5-1.8-2s-1.7-0.8-2.6-0.8c-1.9,0-3.6,1-4.4,2.7c-0.1,0.3-0.4,0.5-0.7,0.5c-0.1,0-0.1,0-0.2,0
				c-0.2,0-0.5-0.1-0.7-0.2c-0.9-0.8-2-1.2-3.2-1.2c-0.6,0-1.2,0.1-1.7,0.3c-0.1,0-0.2,0.1-0.4,0.1c-0.4,0-0.8-0.3-1-0.7
				c-0.2-0.5,0.1-1.1,0.6-1.3c0.8-0.3,1.6-0.4,2.5-0.4c1.3,0,2.5,0.3,3.6,1c1.4-1.8,3.5-2.8,5.7-2.8c1.3,0,2.6,0.4,3.7,1.1
				c0.7,0.5,1.4,1,1.9,1.7c1.2-0.6,2.4-0.9,3.6-0.9c0.9,0,1.8,0.2,2.7,0.5c1.2,0.5,2.3,1.3,3,2.4c0.5,0.7,0.9,1.5,1.1,2.3
				c0.4,0,0.7,0,1,0c0.8,0,1.5,0.1,2.3,0.4c2.3-1.5,4.9-2.3,7.6-2.3c1.1,0,2.1,0.1,3.1,0.4c0.4,0.1,0.7,0.4,0.8,0.8
				c1,4.1,0,8.4-2.7,11.6c0.2,0.4,0.5,0.8,0.6,1.3c0.9,2.1,0.7,4.4-0.4,6.3c0.7,0.6,1.3,1.2,1.7,2c0.7,1.1,1.1,2.4,1.1,3.7
				c0,1.4-0.4,2.7-1.1,3.8c-0.5,0.7-1.1,1.4-1.7,1.9c0.6,1.1,1,2.4,1,3.6c0,0.9-0.2,1.8-0.5,2.7c-0.5,1.2-1.4,2.3-2.4,3
				c-0.7,0.5-1.5,0.9-2.3,1.1c0,0.4,0,0.7,0,1c0,1.9-0.7,3.6-2.1,5c-1.3,1.3-3.1,2-4.9,2c-0.3,0-0.7,0-1-0.1
				c-0.3,0.9-0.6,1.7-1.1,2.4c-0.8,1.1-1.8,1.9-3,2.4c-0.9,0.4-1.8,0.5-2.7,0.5c-1.3,0-2.5-0.3-3.6-1C54.2,80.1,52.1,81.2,50,81.2
				L50,81.2z M76.9,26.1c-3.1,0-6,1.2-8.1,3.4c-0.3,0.3-0.6,0.6-0.8,0.9c-1.9,2.4-1,4.6-0.5,5.4l0.1,0.2c0.7,1.5,2.3,2.4,4.1,2.4
				h0.1l0,0c0.1,0,0.2,0,0.3,0c0.4,0,0.8-0.1,1.2-0.3c0.1,0,0.2-0.1,0.3-0.1c0.1,0,0.1-0.1,0.2-0.1c0.4-0.2,0.7-0.4,1.1-0.7
				c0.3-0.3,0.6-0.6,0.9-0.8c2.6-2.6,3.8-6.4,3.2-10.1C78.3,26.1,77.6,26.1,76.9,26.1z M23.1,26.1c-0.7,0-1.3,0.1-2,0.2
				c-0.7,3.7,0.5,7.5,3.2,10.1c0.3,0.3,0.6,0.6,0.9,0.8c0.5,0.4,1,0.7,1.5,0.9c0.3,0.1,0.6,0.2,0.8,0.2c0.1,0,0.2,0,0.4,0
				c0.1,0,0.3,0,0.4,0h0.1c1.9,0,3.5-1.1,4.2-2.7c0.5-0.8,1.3-3-0.6-5.3c-0.3-0.3-0.5-0.6-0.8-0.9C29,27.3,26.1,26.1,23.1,26.1z"/>
		</g>
		<path class="st0" d="M40.4,54.3c-2.1,0-3.9-1.8-3.9-3.9c0-2.1,1.7-3.9,3.9-3.9s3.9,1.7,3.9,3.9C44.3,52.6,42.5,54.3,40.4,54.3z
			 M40.4,48.5c-1.1,0-2,0.9-2,2s0.9,2,2,2s2-0.9,2-2C42.3,49.4,41.5,48.5,40.4,48.5z"/>
		<path class="st0" d="M59.7,54.3c-2.1,0-3.9-1.8-3.9-3.9c0-2.1,1.7-3.9,3.9-3.9s3.9,1.7,3.9,3.9C63.6,52.6,61.9,54.3,59.7,54.3z
			 M59.7,48.5c-1.1,0-2,0.9-2,2s0.9,2,2,2s2-0.9,2-2S60.8,48.5,59.7,48.5z"/>
	</g>
</g>
</svg>
