<?xml version="1.0" encoding="utf-8"?>
<!-- Generator: Adobe Illustrator 24.3.0, SVG Export Plug-In . SVG Version: 6.00 Build 0)  -->
<svg version="1.1" id="Layer_1" xmlns="http://www.w3.org/2000/svg" xmlns:xlink="http://www.w3.org/1999/xlink" x="0px" y="0px"
	 viewBox="0 0 100 100" style="enable-background:new 0 0 100 100;" xml:space="preserve">
<style type="text/css">
	.st0{fill:#15294A;}
</style>
<path class="st0" d="M50,68.5c-0.3,0-0.6-0.1-0.8-0.3L40,59l-0.5,0.3c-2.1,1.6-4.8,2.5-7.8,2.5h-0.2c-3.5-0.1-6.7-1.4-8.9-3.6
	C13,48.6,14,32.7,14,32.6c0-0.3,0.1-0.6,0.3-0.8c0.2-0.2,0.5-0.3,0.8-0.3h1.3c3.7,0,16.4,0.6,24.4,8.6c2.2,2.2,3.5,5.4,3.6,8.9
	c0.1,2.9-0.8,5.8-2.5,8l-0.3,0.4l8.4,8.5l8.5-8.4L58.1,57c-1.7-2.4-2.6-5-2.5-8c0.1-3.5,1.4-6.7,3.6-8.9c8-8,20.7-8.6,24.4-8.6h1.3
	c0.3,0,0.6,0.1,0.8,0.3c0.2,0.2,0.3,0.5,0.3,0.8v0.2c0.1,3.9-0.2,17.1-8.6,25.5c-2.2,2.2-5.6,3.6-8.9,3.6h-0.2
	c-2.8,0-5.5-0.9-7.8-2.5L60,59l-9.3,9.2C50.6,68.4,50.3,68.5,50,68.5z M61.7,57.4l0.6,0.5c1.8,1.1,3.7,1.7,5.9,1.7
	c2.9,0,5.8-1.1,7.6-2.9c0.3-0.3,0.5-0.5,0.7-0.8c0.2-0.2,0.4-0.5,0.7-0.7l0.9-1H64.9L61.7,57.4z M22.9,55.1c0.4,0.5,0.9,1,1.4,1.5
	c1.8,1.8,4.7,2.9,7.6,2.9c2.2,0,4.2-0.6,5.9-1.7l0.6-0.4l-3.2-3.3H22L22.9,55.1z M62.3,40.4c-0.5,0.4-1.1,0.9-1.5,1.4
	c-2.9,2.9-4.2,8.9-1.2,13.6L60,56l3.3-3.2V39.5L62.3,40.4z M36.6,52.5l3.2,3.2l0.5-0.6c3.1-4.5,1.8-10.6-1.2-13.6
	c-0.3-0.3-0.5-0.5-0.8-0.7c-0.2-0.2-0.5-0.4-0.7-0.7l-1-0.9V52.5z M67.2,51.9h12.2l0.2-0.3c0.6-1.1,1.2-2.4,1.8-4l0.3-0.8l-9.4-0.1
	L67.2,51.9z M18.6,47.5c0.6,1.6,1.2,2.9,1.8,4l0.2,0.3h12.3l-5.1-5.1h-9.4L18.6,47.5z M69.9,36c-1.3,0.5-2.6,1.1-4,1.8L65.6,38v12.3
	l5.1-5.1v-9.4L69.9,36z M29.2,45.1l0.2,0.1l5.1,5.1V38.1l-0.3-0.2c-1.1-0.6-2.4-1.2-4-1.8l-0.9-0.3v9.3H29.2z M74.5,44.5h7.7
	l0.2-0.4c0.5-1.9,0.9-4,1.1-7l0.1-1.7L74.5,44.5z M16.4,37c0.2,2.3,0.6,4.6,1.1,7l0.1,0.4h7.8l-9.2-9.2L16.4,37z M80.4,33.8
	c-2.3,0.2-4.6,0.6-7,1.1L73,35.1v7.8l9.2-9.2L80.4,33.8z M27.1,42.9v-7.7L26.6,35c-2.3-0.6-4.7-1-7-1.1l-1.8-0.2L27.1,42.9z"/>
</svg>
