<?xml version="1.0" encoding="utf-8"?>
<!-- Generator: Adobe Illustrator 24.3.0, SVG Export Plug-In . SVG Version: 6.00 Build 0)  -->
<svg version="1.1" id="Layer_1" xmlns="http://www.w3.org/2000/svg" xmlns:xlink="http://www.w3.org/1999/xlink" x="0px" y="0px"
	 viewBox="0 0 100 100" style="enable-background:new 0 0 100 100;" xml:space="preserve">
<style type="text/css">
	.st0{fill:#15294A;}
</style>
<g>
	<path class="st0" d="M50,76.6c-0.2,0-0.4-0.1-0.6-0.2l-6.3-5.2l0,0c-2.7-0.8-4.7-2.9-5.3-5.8c-0.4-1.6-1.8-7.8-2.9-13.1L34.7,52
		l-0.2,0.2c-0.7,0.6-1.4,1.1-2.2,1.6l0,0l0,0c-0.1,0.1-0.2,0.1-0.3,0.2l0,0l0,0c-2.5,1.4-5.4,2.2-8.3,2.2c-4.5,0-8.8-1.8-11.9-4.9
		c-3-3-4.8-7.1-4.9-11.4v-0.3c-0.1-1.5,1.1-2.7,2.6-2.8h0.1c1.2,0,2.3,0.8,2.6,1.9v0.1c0.3,1.4,1.1,2.7,2.2,3.6
		c1.5,1.3,3.9,1.4,4.6,1.4c0.2,0,0.4,0,0.6,0c1.4-0.1,2.7-0.4,3.6-0.9l0.3-0.2l-0.3-0.2c-2.1-1.4-4-3.2-5.5-5.2
		c-0.2-0.3-0.3-0.7-0.1-1c0.2-0.3,0.5-0.6,0.9-0.6h8v-0.2c0-0.2,0-0.4,0-0.6c0-6.3,5.1-11.5,11.5-11.5c3.9,0,7.4,1.9,9.6,5.1
		l0.1,0.1h4.9l0.1-0.1c2.1-3.2,5.7-5.1,9.6-5.1c6.3,0,11.5,5.1,11.5,11.5c0,0.2,0,0.4,0,0.6v0.2h8c0.4,0,0.7,0.2,0.9,0.6
		c0.2,0.3,0.1,0.7-0.1,1c-1.5,2-3.4,3.8-5.5,5.2l-0.3,0.2l0.3,0.2c1,0.5,2.2,0.8,3.6,0.9c0.2,0,0.4,0,0.6,0c0.7,0,3.1-0.1,4.6-1.4
		c1.1-1,1.9-2.2,2.2-3.6v-0.1c0.3-1.1,1.4-1.9,2.6-1.9h0.1c0.7,0,1.4,0.3,1.9,0.9c0.5,0.5,0.7,1.2,0.7,1.9v0.2
		c-0.1,4.3-1.9,8.4-4.9,11.4c-3.2,3.2-7.4,4.9-11.9,4.9c-2.9,0-5.8-0.8-8.3-2.2l0,0l0,0c-0.1,0-0.2-0.1-0.3-0.2l0,0l0,0
		c-0.8-0.5-1.5-1-2.2-1.6L65.3,52l-0.1,0.3c-0.9,4.1-2.5,11.3-2.9,13.1c-0.7,2.9-2.6,5-5.3,5.8l0,0l-6.3,5.2
		C50.4,76.5,50.2,76.6,50,76.6 M50,74.4l3.7-2.9h-7.4L50,74.4z M53.3,63c0.3,0,0.6,0.2,0.8,0.4s0.2,0.5,0.2,0.7
		c0,0.3-0.2,0.5-0.4,0.7L51,66.9v2.6h3.9c2.2,0,4.7-1.4,5.4-4.5c0.7-2.9,4.8-21.4,6.2-27.5l0.4-1.9c0.1-0.5,0.5-0.8,1-0.8
		c0.1,0,0.1,0,0.2,0c0.4,0.1,0.7,0.4,0.8,0.8v0.2h2.6v-0.2c0-0.2,0-0.4,0-0.6c0-3.2-1.6-6.1-4.3-7.9L67.1,27l0,0
		c-0.1,0.1-0.3,0.1-0.4,0.1c-2.4,0.1-4.7,0.9-6.3,2.3c-1.4,1.2-2.2,2.7-2.2,4c0,0.5-0.4,0.9-0.9,0.9s-0.9-0.4-0.9-0.9
		c0-1.9,1.1-3.9,2.9-5.5c1.1-0.9,2.4-1.6,3.8-2.1v-0.4c-0.3,0-0.6,0-0.9,0c-4.7,0-8.6,3.3-9.3,7.9c-0.1,0.5-0.5,0.8-1,0.8
		c-0.1,0-0.1,0-0.2,0c-0.3,0-0.5-0.2-0.7-0.4s-0.2-0.5-0.2-0.7c0.1-0.7,0.3-1.4,0.6-2.1l0.1-0.3h-2.8l0.1,0.3
		c0.3,0.7,0.5,1.4,0.6,2.1c0.1,0.5-0.3,1.1-0.8,1.1c-0.1,0-0.1,0-0.2,0c-0.5,0-0.9-0.4-1-0.8c-0.7-4.6-4.7-7.9-9.3-7.9
		c-0.3,0-0.7,0-1,0.1v0.4c1.5,0.5,2.7,1.2,3.8,2.1c1.9,1.6,2.9,3.6,2.9,5.5c0,0.5-0.4,0.9-0.9,0.9S42,34,42,33.5
		c0-1.4-0.8-2.9-2.2-4c-1.6-1.4-3.9-2.2-6.3-2.3c-0.1,0-0.2,0-0.3-0.1h-0.1L32.7,27c-2.6,1.8-4.2,4.7-4.2,7.8c0,0.2,0,0.4,0,0.6v0.2
		h2.6v-0.2c0.1-0.4,0.4-0.7,0.8-0.8c0.1,0,0.1,0,0.2,0c0.5,0,0.9,0.3,1,0.8c1.8,7.9,5.9,26.5,6.6,29.4c0.7,3.1,3.2,4.5,5.4,4.5H49
		v-2.6l-2.9-2.1c-0.4-0.3-0.5-1-0.2-1.4c0.2-0.3,0.5-0.4,0.8-0.4c0.2,0,0.4,0.1,0.6,0.2l2.7,2l2.7-2C52.9,63,53.1,63,53.3,63
		 M9.5,38.7c-0.4,0-0.7,0.3-0.7,0.7v0.3c0.1,3.8,1.7,7.4,4.3,10c2.8,2.8,6.5,4.3,10.5,4.3c0.1,0,0.2,0,0.3,0h0.6L24,53.7
		c-1.3-0.9-2.5-1.8-3.5-2.9c-0.2-0.2-0.3-0.4-0.3-0.7s0.1-0.5,0.3-0.7c0.2-0.2,0.4-0.3,0.7-0.3c0.3,0,0.5,0.1,0.7,0.3
		c1.7,1.7,3.6,3.1,5.8,4h0.1h0.1c0.4-0.1,0.9-0.3,1.3-0.4l0.4-0.1l-0.3-0.2c-1.4-0.9-2.8-2-4-3.3c-0.4-0.4-0.4-1,0-1.4
		c0.2-0.2,0.4-0.3,0.7-0.3c0.3,0,0.5,0.1,0.7,0.3c1.4,1.4,3,2.7,4.9,3.7l0.1,0.1l0.1-0.1c0.9-0.6,1.7-1.2,2.4-1.9l0.1-0.1l-0.8-3.6
		h-0.1c-2.3-0.2-4.5-0.8-6.5-1.7c-0.4-0.2-0.8-0.4-1.2-0.6l-0.1-0.1l-0.1,0.1c-1.3,1-3.2,1.7-5.5,1.9c-0.3,0-0.6,0-0.9,0
		c-1.1,0-3.9-0.2-5.9-1.9c-1.4-1.2-2.4-2.8-2.9-4.7l0,0C10.1,38.9,9.8,38.7,9.5,38.7L9.5,38.7L9.5,38.7L9.5,38.7z M78.8,49.1
		c0.3,0,0.5,0.1,0.7,0.3s0.3,0.4,0.3,0.7s-0.1,0.5-0.3,0.7c-1,1.1-2.2,2-3.5,2.9L75.5,54h0.6c0.1,0,0.2,0,0.3,0
		c4,0,7.7-1.5,10.5-4.3c2.7-2.7,4.2-6.3,4.3-10v-0.3c0-0.2-0.1-0.4-0.2-0.5s-0.3-0.2-0.5-0.2l0,0c-0.3,0-0.6,0.2-0.7,0.5l0,0
		c-0.4,1.8-1.4,3.4-2.9,4.7c-2,1.7-4.8,1.9-5.9,1.9c-0.3,0-0.6,0-0.9,0c-2.3-0.2-4.2-0.8-5.5-1.9l-0.1-0.1l-0.1,0.1
		c-0.4,0.2-0.8,0.4-1.2,0.6c-2,0.9-4.2,1.4-6.5,1.7h-0.1l-0.8,3.6l0.1,0.1c0.7,0.7,1.5,1.4,2.4,1.9l0.1,0.1l0.1-0.1
		c1.8-1,3.5-2.3,4.9-3.7c0.2-0.2,0.4-0.3,0.7-0.3c0.3,0,0.5,0.1,0.7,0.3c0.4,0.4,0.4,1,0,1.4c-1.2,1.2-2.5,2.3-4,3.3L70.5,53
		l0.4,0.1c0.4,0.2,0.9,0.3,1.3,0.4h0.1h0.1c2.2-1,4.1-2.3,5.8-4C78.3,49.3,78.5,49.1,78.8,49.1 M67.1,44.1h0.3
		c1.8-0.3,3.5-0.7,5.1-1.4c2.5-1.1,4.7-2.6,6.6-4.6l0.3-0.3H68.5L67.1,44.1z M21,38c1.9,1.9,4.1,3.5,6.6,4.6
		c1.6,0.7,3.3,1.2,5.1,1.4H33l-1.4-6.4H20.7L21,38z"/>
	<path class="st0" d="M58.4,52.7c-2,0-3.6-1.6-3.6-3.6s1.6-3.6,3.6-3.6s3.6,1.6,3.6,3.6C62.1,51,60.4,52.7,58.4,52.7 M58.4,47.3
		c-1,0-1.8,0.8-1.8,1.8s0.8,1.8,1.8,1.8s1.8-0.8,1.8-1.8S59.4,47.3,58.4,47.3"/>
	<path class="st0" d="M41.6,52.7c-2,0-3.6-1.6-3.6-3.6s1.6-3.6,3.6-3.6s3.6,1.6,3.6,3.6C45.3,51,43.6,52.7,41.6,52.7 M41.6,47.3
		c-1,0-1.8,0.8-1.8,1.8s0.8,1.8,1.8,1.8s1.8-0.8,1.8-1.8C43.4,48.1,42.6,47.3,41.6,47.3"/>
</g>
</svg>
