<?xml version="1.0" encoding="utf-8"?>
<!-- Generator: Adobe Illustrator 24.3.0, SVG Export Plug-In . SVG Version: 6.00 Build 0)  -->
<svg version="1.1" id="Layer_1" xmlns="http://www.w3.org/2000/svg" xmlns:xlink="http://www.w3.org/1999/xlink" x="0px" y="0px"
	 viewBox="0 0 289 100" style="enable-background:new 0 0 289 100;" xml:space="preserve">
<style type="text/css">
	.st0{fill-rule:evenodd;clip-rule:evenodd;fill:#FFFFFF;}
	.st1{fill:#FFFFFF;}
</style>
<g>
	<g>
		<g>
			<g>
				<path class="st0" d="M0.1,50.6c0,1.5,0.3,3.6,0.8,5.6c0.1,0.3,0.4,0.7,0.7,0.8c0.5,0.2,0.9-0.1,1.2-0.5C4.5,54,6.3,51,8,48.5
					c0.5-0.6,0.9-1.3,1.4-1.9c1.2-1.6,3.1-1.6,4.2,0c1,1.4,2,2.4,3.1,3.9c1.2,1.7,3,1.7,4.2,0c3.4-4.7,6.8-9,10.1-13.8
					c1.2-1.7,3.4-1.8,4.6,0c4.4,6.4,9,13.2,13.5,19.5c0.2,0.2,0.4,0.5,0.6,0.6c0.5,0.3,1.3,0,1.4-0.7c0.3-1.5,0.6-2.9,0.7-4.4
					c0.7-10.8-5.1-20.6-14.9-25.2c-4.4-2.1-9-2.9-13.8-2.3C13.7,25.5,6.9,30.5,2.6,39C0.9,42.4,0.1,46.1,0.1,50.6z"/>
				<path class="st0" d="M44.8,67.8c-2,2.1-4.2,3.7-6.5,5c-1.2,0.6-2.4,1.2-3.7,1.6c-1.1,0.4-2.3,0.7-3.5,0.9
					c-1.6,0.3-3.3,0.5-5,0.5c-3.8,0-7.4-0.8-10.9-2.4c0,0,0,0-0.1,0c-2.8-1.3-5.2-3-7.4-5.2c0,0,0,0,0,0c0,0,0,0-0.1-0.1
					c0,0,0,0,0,0c-0.3-0.3-0.4-0.6-0.4-1c0-0.5,0.3-0.9,0.7-1.3c0.1-0.1,1.5-1.9,2-2.6c0.7-1.1,1.8-0.9,2.7,0
					c0.7,0.7,1.8,1.5,2.5,2.1c0.5,0.4,0.8,0.6,1.4,0.6c0.4,0,0.8-0.1,1.1-0.3c0.1-0.1,0.2-0.2,0.4-0.3c1.4-1.6,3.7-5.1,5.8-8
					c0.5-0.8,1-1.5,1.5-2c1.1-1.5,2.3-1.5,3.6,0c0.1,0.1,0.2,0.3,0.4,0.4c1.9,2.2,2.9,3.6,4.6,5.4c1,1,2.1,0.9,2.8,0
					c0.5-0.6,1.1-1.4,1.6-2.2c0.7-0.9,1.7-1.1,2.4-0.3c0,0,0,0,0,0c0.1,0.1,1.5,2,2.1,2.8c0,0,1.6,2.2,2.4,3.3
					c0.2,0.3,0.4,0.6,0.5,0.9C45.8,66.5,45.4,67.2,44.8,67.8z"/>
			</g>
		</g>
		<g>
			<path class="st1" d="M272.2,56.7c3.1,0,5.7-1.3,5.7-4c0-2.8-3-3.6-5.1-4.2c-1.4-0.4-2.5-0.9-2.5-2.2c0-1,0.7-1.6,1.9-1.6
				c1.5,0,2.5,0.9,2.5,2.2c0,0.5,0.4,1,1.3,1c1,0,1.4-0.6,1.4-1.4c0-2-2.6-2.9-4.9-2.9c-2.9,0-5.2,1.4-5.2,3.7
				c0,2.5,2.5,3.6,4.6,4.2c1.8,0.5,2.9,0.9,2.9,2.2c0,0.9-0.6,1.9-2.1,1.9c-1.3,0-2.9-0.8-2.9-2.5c0-0.6-0.4-1.2-1.5-1.2
				c-0.9,0-1.4,0.6-1.4,1.5C266.9,55.6,269.4,56.7,272.2,56.7 M259.5,44.7c1.7,0,2.6,1.3,2.6,2.8c0,1.3-0.7,2-3.1,2h-1.5
				c-0.7,0-1-0.3-1-1.2C256.7,46.2,257.6,44.7,259.5,44.7 M261.3,54.8c-2.1,0-3.7-1.1-4.4-3.2c-0.2-0.6-0.1-1.1,0.4-1.1l3.1-0.1
				c3-0.1,4.8-0.4,4.8-2.6c0-2.5-2.3-4.1-5.3-4.1c-3.5,0-7,2.2-7,6.6c0,4.3,3.2,6.5,6.7,6.5c3.1,0,4.9-1.8,5.4-2.8l-0.7-0.6
				C263.5,54.5,262.4,54.8,261.3,54.8 M249.2,56.7c0.8,0,1.8-0.2,2.7-0.7V55c-1.3,0.3-1.8,0-1.8-0.9V39.2c0-0.8-0.4-1.1-1.2-1
				l-3.9,0.7v0.9c1.3-0.1,1.8,0.2,1.8,1.5v12.9C246.7,55.9,247.6,56.7,249.2,56.7 M237.6,56.5h6.9v-0.9c-1.3-0.1-1.8-0.5-1.8-1.7
				v-9.2c0-0.8-0.4-1.1-1.2-1l-3.9,0.7v1c1.3-0.1,1.8,0.2,1.8,1.5v7c0,1.2-0.5,1.6-1.8,1.7V56.5z M240.7,41.8c1.1,0,2-0.9,2-2
				c0-1.1-0.9-2-2-2c-1.1,0-2,0.9-2,2C238.8,40.9,239.7,41.8,240.7,41.8 M233.3,56.7c1.5,0,2.4-0.5,2.9-0.9l-0.5-0.9
				c-0.4,0.3-0.9,0.4-1.5,0.4c-1.1,0-1.4-1.1-1.4-2.3v-7.2c0-0.6,0.3-0.8,0.8-0.8h2.5v-1.1h-2.5c-0.5,0-0.8-0.2-0.8-0.8v-2.3h-1.3
				c-0.5,2-1.5,3-3.9,3.4v0.8h1.1c0.5,0,0.8,0.2,0.8,0.8v6.6C229.5,55.4,230.8,56.7,233.3,56.7 M226.8,44.9v-0.9h-5.1v0.9
				c1.5,0.4,1.5,1-1,3.9l-1-1.4c-1.2-1.6-1.5-2.2,0-2.5v-0.9h-6.3v0.9c1.2,0.4,1.8,1,2.9,2.5l2.6,3.5l-1.7,2
				c-1.3,1.5-2.2,2.2-3.9,2.7v0.9h5.1v-0.9c-1.5-0.4-1.5-0.9,1-3.9l1,1.4c1.2,1.6,1.5,2.2,0,2.5v0.9h6.4v-0.9
				c-1.2-0.4-1.8-1-2.9-2.5l-2.6-3.5l1.7-2C224.2,46,225.1,45.3,226.8,44.9 M206.7,44.7c1.7,0,2.6,1.3,2.6,2.8c0,1.3-0.7,2-3.1,2
				h-1.5c-0.7,0-1-0.3-1-1.2C203.9,46.2,204.8,44.7,206.7,44.7 M208.6,54.8c-2.1,0-3.7-1.1-4.4-3.2c-0.2-0.6-0.1-1.1,0.4-1.1
				l3.1-0.1c3-0.1,4.8-0.4,4.8-2.6c0-2.5-2.3-4.1-5.3-4.1c-3.5,0-7,2.2-7,6.6c0,4.3,3.2,6.5,6.7,6.5c3.1,0,4.9-1.8,5.4-2.8l-0.7-0.6
				C210.7,54.5,209.6,54.8,208.6,54.8 M187.7,56.5h8.8v-0.9c-1.8-0.2-2.5-0.6-2.5-1.7V42.1c0-1.4,0.3-1.7,2-1.7c2,0,2.6,0.7,3.4,3h1
				l-0.6-4.3l-1.6,0.1h-12.2l-1.6-0.1l-0.6,4.3h1c0.8-2.2,1.4-3,3.4-3c1.8,0,2,0.3,2,1.7v11.9c0,1.1-0.7,1.5-2.5,1.7V56.5z
				 M170.4,56.5h6.9v-0.9c-1.3-0.1-1.8-0.5-1.8-1.7v-9.2c0-0.8-0.4-1.1-1.2-1l-3.9,0.7v1c1.3-0.1,1.8,0.2,1.8,1.5v7
				c0,1.2-0.5,1.6-1.8,1.7V56.5z M173.6,41.8c1.1,0,2-0.9,2-2c0-1.1-0.9-2-2-2c-1.1,0-2,0.9-2,2C171.6,40.9,172.5,41.8,173.6,41.8
				 M157,56.5h7v-0.9c-1.4-0.1-1.9-0.5-1.9-1.7v-4.3c0-2.7,1.2-4.2,2.5-4.2c0.7,0,1.2,0.5,1.2,1.3c0,0.9,0.7,1.4,1.6,1.4
				c1.1,0,1.8-0.7,1.8-1.9c0-1.3-1.1-2.6-2.9-2.6c-1.7,0-3,1-3.6,1.7c-0.4,0.4-0.7,0.3-0.7-0.8c0-0.6-0.4-1-1.2-0.9l-3.9,0.7v1
				c1.3-0.1,1.8,0.2,1.8,1.5v7c0,1.2-0.5,1.6-1.8,1.7V56.5z M147.6,56.8l1.6,0.3c2,0.3,2.7,0.6,2.7,1.8c0,1.5-1.4,2.4-3.5,2.4
				c-2.3,0-3.7-1.1-3.7-2.6C144.8,57.6,145.6,56.5,147.6,56.8 M148.5,51.6c-1.9,0-2.7-2.1-2.7-4c0-1.3,0.3-2.9,1.9-2.9
				c1.8,0,2.7,2.1,2.7,4C150.4,50,150.2,51.6,148.5,51.6 M154.4,46.2c0.8,0.2,1.5-0.3,1.5-1.1c0-0.9-0.7-1.3-1.5-1.3
				c-1.1,0-1.6,0.8-1.7,1.7c-1-1.2-2.6-1.8-4.6-1.8c-3.6,0-5.4,2-5.4,4.5c0,1.7,0.9,3,2.3,3.7c-1.6,0.3-2.5,1-2.5,2.2
				c0,0.8,0.5,1.6,1.6,1.9c1.7,0.4-2.2,0.2-2.2,2.9c0,2.1,2.5,3.3,5.6,3.3c4,0,7.8-1.9,7.8-4.6c0-1.7-2-2.4-4.6-2.9l-3.6-0.6
				c-1-0.2-1.6-0.5-1.6-0.9c0-0.4,0.3-0.7,1.1-0.7c0.6,0,1.2,0.1,2.1,0.1c3.3,0,5.1-2,5.1-4.5V48C153.5,46.5,153.7,46,154.4,46.2
				 M138.4,56.7c0.8,0,1.8-0.2,2.3-0.6v-0.9c-1,0.2-1.4-0.1-1.4-1.1v-5.5c0-3.9-2-4.9-4.1-4.9c-2.2,0-3.3,1.1-3.9,1.8
				c-0.4,0.4-0.8,0.2-0.8-0.8c0-0.6-0.4-1-1.2-0.9l-3.9,0.7v1c1.3-0.1,1.8,0.2,1.8,1.5v7c0,1.2-0.5,1.6-1.8,1.7v0.9h6.9v-0.9
				c-1.3-0.1-1.8-0.5-1.8-1.7v-4.6c0-2.1,1.1-3.5,2.9-3.5c1.7,0,2.6,1.4,2.6,3.5v5.1C135.9,55.9,136.8,56.7,138.4,56.7 M116.3,54.8
				c-1.3,0-1.9-0.9-1.9-1.9c0-1,0.7-2.5,3.8-2.7c0.9-0.1,1.1,0.2,1.1,0.8v0.8C119.3,53.5,118,54.8,116.3,54.8 M114.6,56.7
				c2,0,3.4-1,4.2-2c0.3-0.3,0.5-0.3,0.5,0.1c0.1,1,0.8,1.9,2.4,1.9c0.8,0,1.8-0.2,2.3-0.6v-1c-1,0.2-1.4-0.1-1.4-1.1v-5.3
				c0-3.9-1.5-5.1-4.6-5.1c-3.1,0-6.2,1.2-6.2,3.2c0,0.8,0.5,1.6,1.6,1.6c0.9,0,1.8-0.5,1.8-1.7c0-1.1,0.4-2,1.8-2
				c1.6,0,2.3,1.1,2.3,3.1v0.4c0,0.8-0.2,1-1,1.1c-5.5,0.8-7.4,2.2-7.4,4.4C110.9,55.8,112.7,56.7,114.6,56.7 M108.1,54v-5.5
				c0-3.9-2-4.9-4.1-4.9c-2.2,0-3.3,1.1-3.9,1.8c-0.4,0.4-0.8,0.2-0.8-0.8v-5.4c0-0.8-0.4-1.1-1.2-1L94.1,39v0.9
				c1.3-0.1,1.8,0.2,1.8,1.5v12.4c0,1.2-0.5,1.6-1.8,1.7v0.9h6.9v-0.9c-1.3-0.1-1.8-0.5-1.8-1.7v-4.6c0-2.1,1.1-3.4,2.9-3.4
				c1.7,0,2.6,1.3,2.6,3.4v5.1c0,1.5,0.9,2.3,2.4,2.3c0.8,0,1.8-0.2,2.3-0.6v-0.9C108.6,55.3,108.1,55,108.1,54 M89.4,53l-4.3-5.6
				c-0.6-0.8-0.7-1.3,0-2l3.3-3.4c1.1-1.1,2.7-1.8,3.9-1.9v-0.9h-6.3v0.9c1.1,0.1,1.9,0.8,1,1.8l-6.7,6.9v-7c0-1.1,0.7-1.5,1.9-1.7
				v-0.9h-7.7v0.9c1.3,0.2,1.9,0.6,1.9,1.7v12.2c0,1.1-0.7,1.5-1.9,1.7v0.9h7.7v-0.9c-1.3-0.2-1.9-0.6-1.9-1.7v-2.3
				c0-0.8,0-1.2,0.4-1.7l0.4-0.4c0.5-0.6,1.2-0.2,1.9,0.7l2.7,3.6c0.9,1.2,0.2,1.6-0.8,1.8v0.9h8.4v-0.9
				C91.9,55.4,90.9,54.9,89.4,53"/>
		</g>
	</g>
</g>
</svg>
